<?xml version="1.0" encoding="UTF-8"?>
<!DOCTYPE svg PUBLIC "-//W3C//DTD SVG 1.1//EN" "http://www.w3.org/Graphics/SVG/1.1/DTD/svg11.dtd">
<!-- Creator: CorelDRAW 2017 -->
<svg xmlns="http://www.w3.org/2000/svg" xml:space="preserve" width="100mm" height="25.6998mm" version="1.1"
     shape-rendering="geometricPrecision" text-rendering="geometricPrecision" image-rendering="optimizeQuality"
     fill-rule="evenodd" clip-rule="evenodd"
     viewBox="0 0 99827.5 25655.5"
     xmlns:xlink="http://www.w3.org/1999/xlink">
 <g id="Ebene_x0020_1">
  <metadata id="CorelCorpID_0Corel-Layer"/>
     <g id="_2367254109776">
   <path fill="#3E3E3B" fill-rule="nonzero"
         d="M28284.1 20420.5c0,137 -22.8,269.5 -63.9,397.3 -45.7,127.9 -105,242.1 -178.1,347.1 -77.6,105 -169,200.9 -274,278.6 -109.6,82.2 -228.3,141.6 -360.8,182.7 -662.2,219.2 -1333.5,388.2 -2014,506.9 -680.4,118.8 -1379.2,178.1 -2096.2,178.1 -840.3,0 -1575.6,-100.5 -2210.4,-296.9 -634.8,-200.9 -1169.1,-493.2 -1598.4,-881.4 -401.9,-356.2 -703.3,-790.1 -904.2,-1301.5 -201,-511.5 -301.4,-1091.5 -301.4,-1740 0,-648.5 100.5,-1223.9 301.4,-1730.8 200.9,-502.4 502.3,-940.8 904.2,-1310.7 429.3,-388.2 963.6,-666.8 1598.4,-840.3 634.8,-169 1370.1,-255.8 2210.4,-255.8l3123.7 0 0 -1726.3c0,-406.4 -68.5,-762.6 -210.1,-1068.6 -141.6,-306 -342.5,-561.7 -593.7,-771.8 -255.7,-205.5 -557.1,-365.3 -913.4,-470.4 -356.2,-105 -753.5,-155.3 -1187.4,-155.3 -552.6,0 -1082.4,77.6 -1593.8,237.5 -511.5,159.8 -1032.1,392.7 -1557.3,694.1 -68.5,41.1 -137,73.1 -210.1,100.5 -68.5,22.8 -146.2,36.5 -228.4,36.5 -123.3,0 -242.1,-22.8 -351.6,-63.9 -114.2,-41.1 -210.1,-95.9 -296.9,-173.6 -86.8,-73 -155.3,-164.4 -205.5,-274 -50.2,-105 -77.6,-228.3 -77.6,-365.3 0,-164.4 41.1,-319.7 118.7,-461.2 82.2,-146.2 196.4,-264.9 347.1,-360.8 643.9,-397.3 1315.3,-680.5 2009.4,-844.9 694.2,-169 1374.6,-251.2 2046,-251.2 643.9,0 1255.9,86.8 1831.3,255.8 580,173.5 1086.9,429.3 1520.8,776.4 433.8,347.1 776.4,780.9 1032.1,1301.5 255.8,520.6 383.6,1132.6 383.6,1831.3l0 8220.3zm-1863.3 -4740.4l-3123.7 0c-465.8,0 -867.7,32 -1201.1,100.5 -337.9,68.5 -621.1,164.4 -858.6,278.6 -232.9,118.8 -420.1,255.8 -561.7,415.6 -141.6,159.9 -255.8,328.8 -333.4,507 -82.2,178.1 -132.4,360.8 -159.8,552.6 -22.8,187.3 -36.5,374.5 -36.5,557.2 0,182.7 13.7,369.9 36.5,566.3 27.4,191.8 77.6,383.6 159.8,566.3 77.6,187.3 191.8,360.8 333.4,525.2 141.6,164.4 328.8,306 561.7,429.3 237.5,123.3 520.6,223.8 858.6,296.9 333.4,73 735.3,109.6 1201.1,109.6 538.9,0 1068.6,-41.1 1593.8,-118.7 520.6,-82.2 1032.1,-196.4 1529.9,-347.1l0 -4439z"/>
         <path id="1" fill="#3E3E3B" fill-rule="nonzero"
               d="M31983.2 3486.6c0,-132.4 22.8,-255.8 73,-365.3 45.7,-114.2 114.2,-210.1 196.4,-296.9 86.7,-82.2 187.2,-150.7 301.4,-196.4 114.2,-50.2 232.9,-73.1 360.8,-73.1 132.4,0 255.7,22.8 365.3,73.1 114.1,45.7 210.1,114.1 296.9,196.4 82.2,86.8 150.7,182.7 196.4,296.9 50.2,109.6 73,232.9 73,365.3l0 4822.6 3151.1 0c123.3,0 242.1,22.8 351.6,68.5 109.6,45.7 205.5,109.6 287.7,187.2 82.2,82.2 146.2,173.5 191.8,283.2 50.2,109.6 73.1,232.9 73.1,365.3 0,127.9 -22.8,246.6 -73.1,356.2 -45.7,109.6 -109.6,201 -191.8,278.6 -82.2,73.1 -178.1,132.4 -287.7,178.1 -109.6,41.1 -228.3,63.9 -351.6,63.9l-3151.1 0 0 8521.8c0,292.3 45.7,557.2 132.5,790.1 91.3,237.5 214.6,433.8 369.9,598.3 159.8,159.8 342.5,283.2 552.6,369.9 210.1,86.7 433.8,132.4 671.3,132.4 105,0 228.4,-4.6 365.3,-18.3 137,-9.1 274,-22.8 411,-36.5 141.6,-13.7 269.5,-27.4 392.7,-36.5 118.8,-13.7 214.7,-18.3 283.2,-18.3 95.9,0 196.4,18.3 296.9,59.4 105,36.5 201,95.9 287.7,169 86.8,77.6 155.3,169 210.1,278.6 54.8,109.6 82.2,232.9 82.2,369.9 0,219.2 -68.5,415.6 -210.1,584.6 -137,173.5 -324.2,278.6 -557.2,319.7 -260.3,41.1 -520.6,73 -781,100.4 -260.3,22.8 -520.6,36.5 -780.9,36.5 -493.2,0 -959,-91.3 -1392.9,-274 -438.4,-182.7 -817.5,-438.4 -1141.7,-771.8 -324.2,-328.8 -580,-726.1 -771.8,-1187.4 -187.3,-461.2 -283.2,-968.2 -283.2,-1520.8l0 -15070.7z"/>
         <path id="2" fill="#3E3E3B" fill-rule="nonzero"
               d="M49821.4 20420.5c0,137 -22.8,269.5 -63.9,397.3 -45.7,127.9 -105,242.1 -178.1,347.1 -77.6,105 -169,200.9 -274,278.6 -109.6,82.2 -228.3,141.6 -360.8,182.7 -662.2,219.2 -1333.5,388.2 -2014,506.9 -680.4,118.8 -1379.2,178.1 -2096.2,178.1 -840.3,0 -1575.6,-100.5 -2210.4,-296.9 -634.8,-200.9 -1169.1,-493.2 -1598.4,-881.4 -401.9,-356.2 -703.3,-790.1 -904.2,-1301.5 -201,-511.5 -301.4,-1091.5 -301.4,-1740 0,-648.5 100.5,-1223.9 301.4,-1730.8 200.9,-502.4 502.3,-940.8 904.2,-1310.7 429.3,-388.2 963.6,-666.8 1598.4,-840.3 634.8,-169 1370.1,-255.8 2210.4,-255.8l3123.7 0 0 -1726.3c0,-406.4 -68.5,-762.6 -210.1,-1068.6 -141.6,-306 -342.5,-561.7 -593.7,-771.8 -255.7,-205.5 -557.1,-365.3 -913.4,-470.4 -356.2,-105 -753.5,-155.3 -1187.4,-155.3 -552.6,0 -1082.4,77.6 -1593.8,237.5 -511.5,159.8 -1032.1,392.7 -1557.3,694.1 -68.5,41.1 -137,73.1 -210.1,100.5 -68.5,22.8 -146.2,36.5 -228.4,36.5 -123.3,0 -242.1,-22.8 -351.6,-63.9 -114.2,-41.1 -210.1,-95.9 -296.9,-173.6 -86.8,-73 -155.3,-164.4 -205.5,-274 -50.2,-105 -77.6,-228.3 -77.6,-365.3 0,-164.4 41.1,-319.7 118.7,-461.2 82.2,-146.2 196.4,-264.9 347.1,-360.8 643.9,-397.3 1315.3,-680.5 2009.4,-844.9 694.2,-169 1374.6,-251.2 2046,-251.2 643.9,0 1255.9,86.8 1831.3,255.8 580,173.5 1086.9,429.3 1520.8,776.4 433.8,347.1 776.4,780.9 1032.1,1301.5 255.8,520.6 383.6,1132.6 383.6,1831.3l0 8220.3zm-1863.3 -4740.4l-3123.7 0c-465.8,0 -867.7,32 -1201.1,100.5 -337.9,68.5 -621.1,164.4 -858.6,278.6 -232.9,118.8 -420.1,255.8 -561.7,415.6 -141.6,159.9 -255.8,328.8 -333.4,507 -82.2,178.1 -132.4,360.8 -159.8,552.6 -22.8,187.3 -36.5,374.5 -36.5,557.2 0,182.7 13.7,369.9 36.5,566.3 27.4,191.8 77.6,383.6 159.8,566.3 77.6,187.3 191.8,360.8 333.4,525.2 141.6,164.4 328.8,306 561.7,429.3 237.5,123.3 520.6,223.8 858.6,296.9 333.4,73 735.3,109.6 1201.1,109.6 538.9,0 1068.6,-41.1 1593.8,-118.7 520.6,-82.2 1032.1,-196.4 1529.9,-347.1l0 -4439z"/>
         <path id="3" fill="#3E3E3B" fill-rule="nonzero"
               d="M55219.4 15241.6c-319.7,-137 -625.7,-306 -913.4,-502.3 -292.3,-196.4 -543.5,-433.9 -762.6,-712.4 -214.7,-283.2 -388.2,-607.4 -516.1,-981.9 -127.9,-369.9 -191.8,-799.2 -191.8,-1283.3 0,-570.9 118.7,-1086.9 351.6,-1543.6 232.9,-461.2 548,-849.4 954.5,-1173.7 401.9,-319.7 876.8,-570.9 1415.7,-744.4 538.9,-178.1 1109.7,-264.9 1717.1,-264.9 675.9,0 1283.3,63.9 1826.8,187.3 538.9,127.9 1045.8,292.3 1516.2,497.8 178.1,82.2 319.7,201 420.1,356.2 105,155.3 155.3,328.8 155.3,520.7 0,123.3 -22.8,237.5 -73.1,337.9 -45.7,105 -114.2,191.8 -196.4,269.4 -86.8,73.1 -182.7,132.5 -296.9,178.1 -109.6,41.1 -232.9,63.9 -365.3,63.9 -100.5,0 -219.2,-27.4 -356.2,-82.2 -415.6,-191.8 -863.2,-342.5 -1342.7,-447.6 -479.5,-105 -981.9,-155.3 -1507.1,-155.3 -264.9,0 -538.9,32 -817.5,100.5 -283.2,68.5 -534.3,182.7 -762.7,333.4 -223.8,155.3 -411,351.6 -557.2,593.7 -146.1,242.1 -219.2,538.9 -219.2,890.6 0,274 45.7,516.1 132.4,721.6 86.7,210.1 196.4,388.2 328.8,543.4 132.4,150.7 278.6,278.6 438.4,379.1 164.4,100.4 319.7,182.7 470.4,246.6l2575.7 1041.2c411,164.4 785.5,369.9 1123.4,612 337.9,246.6 625.7,520.6 867.7,831.2 237.5,306 424.7,643.9 552.6,1013.8 132.4,369.9 196.4,767.2 196.4,1187.4 0,379 -50.2,739.8 -150.7,1086.9 -100.5,347.1 -242.1,671.3 -429.3,972.7 -182.7,301.4 -406.4,575.4 -666.7,822.1 -260.3,242 -552.6,452.1 -881.4,625.7 -324.2,173.5 -675.9,306 -1055,401.9 -379,95.9 -780.9,146.1 -1201.1,146.1 -717,0 -1365.5,-73.1 -1950,-214.6 -584.6,-141.6 -1141.7,-333.4 -1666.9,-580 -178.1,-82.2 -315.1,-196.4 -406.4,-342.5 -95.9,-146.2 -141.6,-315.1 -141.6,-507 0,-123.3 22.8,-237.5 68.5,-347.1 45.7,-105 109.6,-201 191.8,-278.6 82.2,-77.6 182.7,-137 296.9,-182.7 114.2,-45.7 237.5,-68.5 374.5,-68.5 68.5,0 132.4,9.1 191.8,32 59.3,22.8 123.3,50.2 191.8,77.6 443,191.8 904.3,351.6 1383.8,484.1 479.5,132.4 995.6,200.9 1548.2,200.9 324.2,0 634.8,-45.7 927.1,-141.6 292.3,-91.3 548,-228.3 776.3,-401.9 223.8,-173.5 406.5,-383.6 538.9,-634.8 132.4,-251.2 196.4,-534.3 196.4,-849.4 0,-287.7 -36.5,-543.5 -105,-767.2 -73.1,-223.8 -178.1,-424.7 -324.2,-602.8 -141.6,-178.1 -324.2,-337.9 -538.9,-479.5 -219.2,-141.5 -470.4,-274 -758.1,-397.3l-2575.7 -1068.7z"/>
         <path id="4" fill="#3E3E3B" fill-rule="nonzero"
               d="M73742.6 20420.5c0,137 -22.8,269.5 -63.9,397.3 -45.7,127.9 -105,242.1 -178.1,347.1 -77.6,105 -169,200.9 -274,278.6 -109.6,82.2 -228.3,141.6 -360.8,182.7 -662.2,219.2 -1333.5,388.2 -2014,506.9 -680.4,118.8 -1379.2,178.1 -2096.2,178.1 -840.3,0 -1575.6,-100.5 -2210.4,-296.9 -634.8,-200.9 -1169.1,-493.2 -1598.4,-881.4 -401.9,-356.2 -703.3,-790.1 -904.2,-1301.5 -201,-511.5 -301.4,-1091.5 -301.4,-1740 0,-648.5 100.5,-1223.9 301.4,-1730.8 200.9,-502.4 502.3,-940.8 904.2,-1310.7 429.3,-388.2 963.6,-666.8 1598.4,-840.3 634.8,-169 1370.1,-255.8 2210.4,-255.8l3123.7 0 0 -1726.3c0,-406.4 -68.5,-762.6 -210.1,-1068.6 -141.6,-306 -342.5,-561.7 -593.7,-771.8 -255.7,-205.5 -557.1,-365.3 -913.4,-470.4 -356.2,-105 -753.5,-155.3 -1187.4,-155.3 -552.6,0 -1082.4,77.6 -1593.8,237.5 -511.5,159.8 -1032.1,392.7 -1557.3,694.1 -68.5,41.1 -137,73.1 -210.1,100.5 -68.5,22.8 -146.2,36.5 -228.4,36.5 -123.3,0 -242.1,-22.8 -351.6,-63.9 -114.2,-41.1 -210.1,-95.9 -296.9,-173.6 -86.8,-73 -155.3,-164.4 -205.5,-274 -50.2,-105 -77.6,-228.3 -77.6,-365.3 0,-164.4 41.1,-319.7 118.7,-461.2 82.2,-146.2 196.4,-264.9 347.1,-360.8 643.9,-397.3 1315.3,-680.5 2009.4,-844.9 694.2,-169 1374.6,-251.2 2046,-251.2 643.9,0 1255.9,86.8 1831.3,255.8 580,173.5 1086.9,429.3 1520.8,776.4 433.8,347.1 776.4,780.9 1032.1,1301.5 255.8,520.6 383.6,1132.6 383.6,1831.3l0 8220.3zm-1863.3 -4740.4l-3123.7 0c-465.8,0 -867.7,32 -1201.1,100.5 -337.9,68.5 -621.1,164.4 -858.6,278.6 -232.9,118.8 -420.1,255.8 -561.7,415.6 -141.6,159.9 -255.8,328.8 -333.4,507 -82.2,178.1 -132.4,360.8 -159.8,552.6 -22.8,187.3 -36.5,374.5 -36.5,557.2 0,182.7 13.7,369.9 36.5,566.3 27.4,191.8 77.6,383.6 159.8,566.3 77.6,187.3 191.8,360.8 333.4,525.2 141.6,164.4 328.8,306 561.7,429.3 237.5,123.3 520.6,223.8 858.6,296.9 333.4,73 735.3,109.6 1201.1,109.6 538.9,0 1068.6,-41.1 1593.8,-118.7 520.6,-82.2 1032.1,-196.4 1529.9,-347.1l0 -4439z"/>
         <path id="5" fill="#3E3E3B" fill-rule="nonzero"
               d="M77441.8 6144.5c0,-493.2 95.9,-959 283.2,-1392.9 191.8,-438.4 447.5,-817.5 771.8,-1141.7 324.2,-324.2 703.3,-580 1141.7,-771.8 433.8,-187.3 899.7,-283.2 1392.9,-283.2 520.6,0 1041.3,54.8 1561.9,164.4 232.9,54.8 420.1,164.4 557.2,328.8 141.5,164.4 210.1,356.2 210.1,575.4 0,141.6 -27.4,264.9 -77.6,374.5 -54.8,109.6 -123.3,205.5 -210.1,278.6 -86.8,77.6 -182.7,132.4 -292.3,169 -105,36.5 -214.6,54.8 -324.2,54.8 -114.2,0 -223.8,-9.1 -328.8,-27.4 -105,-18.3 -210.1,-36.5 -319.7,-59.4 -109.6,-18.3 -228.3,-36.5 -351.6,-54.8 -123.3,-13.7 -264.9,-22.8 -424.7,-22.8 -237.5,0 -461.2,45.7 -671.3,132.4 -210.1,91.4 -392.8,214.7 -552.6,369.9 -155.3,159.8 -278.6,342.5 -369.9,548 -86.8,210.1 -132.5,433.9 -132.5,675.9l0 2246.9 3151.1 0c123.3,0 242.1,22.8 351.6,68.5 109.6,45.7 205.5,109.6 287.7,187.2 82.2,82.2 146.2,173.5 191.8,283.2 50.2,109.6 73.1,232.9 73.1,365.3 0,127.9 -22.8,246.6 -73.1,356.2 -45.7,109.6 -109.6,201 -191.8,278.6 -82.2,73.1 -178.1,132.4 -287.7,178.1 -109.6,41.1 -228.3,63.9 -351.6,63.9l-3151.1 0 0 11289.3c0,127.9 -22.8,246.6 -73,360.8 -45.7,114.2 -114.2,214.7 -196.4,301.4 -86.8,82.2 -182.7,150.7 -296.9,196.4 -109.6,50.2 -232.9,73.1 -365.3,73.1 -127.9,0 -246.6,-22.8 -360.8,-73.1 -114.2,-45.7 -214.7,-114.1 -301.4,-196.4 -82.2,-86.7 -150.7,-187.2 -196.4,-301.4 -50.2,-114.2 -73,-232.9 -73,-360.8l0 -15235z"/>
         <path id="6" fill="#3E3E3B" fill-rule="nonzero"
               d="M86936.3 15762.3l0 1534.5c0,493.2 73.1,940.8 214.7,1347.2 146.1,401.9 351.6,748.9 621.1,1036.6 269.5,287.7 598.3,511.5 991,666.8 388.2,159.8 831.2,237.5 1324.4,237.5 552.6,0 1086.9,-73.1 1603,-219.2 516.1,-146.1 1023,-328.8 1520.8,-548 68.5,-27.4 132.4,-50.2 191.8,-63.9 59.4,-13.7 123.3,-18.3 191.8,-18.3 132.4,0 255.8,22.8 365.3,68.5 114.2,45.7 210.1,105 296.9,182.7 82.2,77.6 150.7,173.5 196.4,278.6 50.2,109.6 73.1,223.8 73.1,347.1 0,178.1 -45.7,337.9 -137,484.1 -91.3,141.5 -219.2,255.7 -383.6,337.9 -621.1,301.4 -1255.9,520.6 -1908.9,662.2 -648.5,141.5 -1319.8,214.6 -2009.4,214.6 -753.5,0 -1438.6,-123.3 -2055.1,-365.3 -616.5,-242.1 -1141.7,-580 -1580.1,-1023 -438.4,-438.4 -780.9,-968.2 -1018.4,-1584.7 -242,-616.5 -360.8,-1297 -360.8,-2041.4l0 -4247.2c0,-749 118.7,-1429.5 360.8,-2046 237.5,-612 580,-1141.7 1018.4,-1580.1 438.4,-443 963.6,-785.5 1580.1,-1027.5 616.5,-242.1 1301.5,-360.8 2055.1,-360.8 749,0 1429.4,118.7 2041.4,360.8 612,242.1 1137.2,584.6 1571,1027.5 438.4,438.4 776.4,968.2 1013.8,1580.1 242.1,616.5 360.8,1297 360.8,2046l0 1424.8c0,178.1 -32,342.5 -100.5,497.8 -63.9,155.3 -155.3,292.3 -274,411 -114.2,114.2 -251.2,205.5 -411,274 -155.3,68.5 -324.2,105.1 -502.4,105.1l-6850.3 0zm6274.9 -2849.7c0,-493.2 -73.1,-936.2 -214.7,-1324.4 -146.1,-392.7 -351.6,-721.6 -616.5,-991 -269.4,-269.5 -593.7,-475 -981.9,-621.1 -383.6,-141.6 -822,-214.7 -1310.7,-214.7 -493.2,0 -936.2,73.1 -1324.4,214.7 -392.7,146.1 -721.6,351.6 -991,621.1 -269.4,269.4 -474.9,598.3 -621.1,991 -141.6,388.2 -214.7,831.2 -214.7,1324.4l0 1123.5 6274.9 0 0 -1123.5z"/>
         <path fill="#3E3E3B"
               d="M14976.7 15925.1l-13.2 5140c-4.4,1463.2 -866.8,2800.3 -2199.9,3394.5 -1218.7,542.2 -3115,1195.9 -5240,1195.9 -2133.9,7.4 -4061,-638.8 -5301.7,-1181 -1355.1,-586.8 -2221.9,-1923.8 -2221.9,-3401.9l13.2 -5199.4c4.4,-1507.8 910.7,-2859.7 2309.8,-3431.6 668.8,-282.2 1359.5,-505.1 2054.7,-668.5 497.2,-118.8 998.7,185.7 1117.5,683.4 118.8,497.6 -184.8,1002.8 -686.4,1121.6 -598.4,141.1 -1201.1,334.2 -1781.9,571.9 -699.5,297.1 -1157.1,973 -1157.1,1730.7l-13.2 5199.4c-4.4,735.3 431.2,1403.8 1104.3,1693.5 1077.9,475.4 2745.4,1032.5 4558.1,1025 1803.9,0 3436.2,-564.5 4487.7,-1032.4 668.8,-304.5 1100,-965.6 1104.3,-1701l13.2 -5140c0,-757.6 -470.8,-1455.8 -1174.7,-1723.2 -598.4,-230.3 -1205.5,-423.4 -1808.3,-572 -413.6,-96.6 -704,-467.9 -704,-898.7 0,0 4.4,-4144.7 0,-5058.3l4.4 0 0 -4167c0,-245.1 -44,-467.9 -132,-675.9 -88,-208 -211.2,-393.7 -369.5,-549.6 -158.4,-156 -343.2,-282.3 -550,-371.4 -211.2,-89.1 -435.6,-133.7 -673.1,-133.7 -158.4,0 -299.2,7.4 -422.4,29.7 -123.2,14.9 -242,29.7 -352,52 -110,22.3 -215.6,37.1 -321.2,59.4 -105.6,14.9 -215.6,22.3 -330,22.3 -105.6,0 -215.6,-14.9 -321.2,-52 -110,-37.1 -206.8,-89.1 -294.8,-170.8 -83.6,-74.3 -154,-163.4 -206.8,-274.9 -52.8,-111.4 -79.2,-230.3 -79.2,-378.8 0,-215.4 70.4,-408.5 211.2,-572 136.4,-163.4 321.2,-274.8 554.3,-326.8 523.6,-111.4 1042.8,-163.4 1561.9,-163.4 492.8,0 959.1,89.1 1394.7,282.2 435.6,185.7 813.9,445.7 1139.5,772.5 325.6,319.4 580.7,698.2 769.9,1136.5 189.2,438.3 286,898.7 286,1396.4l0 8437.9c435.6,126.3 875.5,274.9 1311.1,445.7 1412.3,542.2 2362.7,1931.2 2358.2,3453.9z"/>
  </g>
     <circle fill="#A0100C" cx="7782" cy="20595.2" r="1588.8"/>
     <circle fill="#A0100C" cx="98238.7" cy="20595.2" r="1588.8"/>
 </g>
</svg>
